HIERARCHY
ROOT hip
{
	OFFSET 0.000000 0.000000 0.000000 
	CHANNELS 6 Xposition Yposition Zposition Xrotation Zrotation Yrotation
	JOINT abdomen
	{
		OFFSET 0.000000 3.402643 0.000000 
		CHANNELS 3 Xrotation Zrotation Yrotation
		JOINT chest
		{
			OFFSET 0.000000 8.438565 -0.680529 
			CHANNELS 3 Xrotation Zrotation Yrotation
			JOINT neck
			{
				OFFSET 0.000000 10.207942 -0.272212 
				CHANNELS 3 Xrotation Zrotation Yrotation
				JOINT head
				{
					OFFSET 0.000000 3.130431 0.000000 
					CHANNELS 3 Xrotation Zrotation Yrotation
					End Site
					{
						OFFSET 0.000000 3.130435 0.000000 
					}
				}
			}
			JOINT lCollar
			{
				OFFSET 3.470700 6.669187 -0.816635 
				CHANNELS 3 Yrotation Zrotation Xrotation
				JOINT lShldr
				{
					OFFSET 3.198488 0.000000 0.000000 
					CHANNELS 3 Zrotation Yrotation Xrotation
					JOINT lForeArm
					{
						OFFSET 10.139888 0.000000 0.000000 
						CHANNELS 3 Yrotation Zrotation Xrotation
						JOINT lHand
						{
							OFFSET 8.370511 0.000000 0.000000 
							CHANNELS 3 Zrotation Yrotation Xrotation
							End Site
							{
								OFFSET 4.083176 0.000000 0.000000 
							}
						}
					}
				}
			}
			JOINT rCollar
			{
				OFFSET -3.470700 6.669187 -0.816635 
				CHANNELS 3 Yrotation Zrotation Xrotation
				JOINT rShldr
				{
					OFFSET -3.198488 0.000000 0.000000 
					CHANNELS 3 Zrotation Yrotation Xrotation
					JOINT rForeArm
					{
						OFFSET -10.139888 0.000000 0.000000 
						CHANNELS 3 Yrotation Zrotation Xrotation
						JOINT rHand
						{
							OFFSET -8.370511 0.000000 0.000000 
							CHANNELS 3 Zrotation Yrotation Xrotation
							End Site
							{
								OFFSET -4.083176 0.000000 0.000000 
							}
						}
					}
				}
			}
		}
	}
	JOINT lThigh
	{
		OFFSET 5.308129 -1.633274 1.361059 
		CHANNELS 3 Xrotation Zrotation Yrotation
		JOINT lShin
		{
			OFFSET -2.041588 -20.007561 0.000000 
			CHANNELS 3 Xrotation Zrotation Yrotation
			JOINT lFoot
			{
				OFFSET 0.000000 -19.190928 -1.224953 
				CHANNELS 3 Xrotation Yrotation Zrotation
				End Site
				{
					OFFSET 0.000000 -2.449906 4.627600 
				}
			}
		}
	}
	JOINT rThigh
	{
		OFFSET -5.308129 -1.633274 1.361059 
		CHANNELS 3 Xrotation Zrotation Yrotation
		JOINT rShin
		{
			OFFSET 2.041588 -20.007561 0.000000 
			CHANNELS 3 Xrotation Zrotation Yrotation
			JOINT rFoot
			{
				OFFSET 0.000000 -19.190928 -1.224953 
				CHANNELS 3 Xrotation Yrotation Zrotation
				End Site
				{
					OFFSET 0.000000 -2.449906 4.627600 
				}
			}
		}
	}
}
MOTION
Frames: 8
Frame Time: 0.033333
-121.931160 52.644974 -123.020905 -0.820734 -1.835749 35.260658 21.328196 -0.171194 0.037961 -20.839844 0.000000 0.000000 6.533541 0.784905 4.852994 -2.520832 -1.255077 0.218355 -4.754609 -0.109184 -0.002653 -82.823662 0.721833 44.793537 -4.676590 -0.107381 -17.966646 -6.548728 -3.737723 0.031888 4.754609 0.109184 -0.002672 86.735313 -2.597098 -6.304297 2.825645 -0.553300 26.771177 0.468870 4.819643 0.032565 7.780834 12.654083 9.252119 -5.524010 -3.881200 4.121213 -0.411759 0.392374 -7.180489 5.076846 -8.397716 -6.282228 -3.236391 3.636242 -5.750968 -0.860658 -0.391228 4.257880 
-121.917458 52.679993 -123.061523 -0.449430 -1.757758 36.078232 21.289110 -0.128217 -0.102386 -20.839844 0.000000 0.000000 6.709008 0.284861 4.273399 -2.520832 -1.255077 0.218355 -4.754609 -0.109184 -0.002653 -80.288528 -0.127564 46.081512 -6.387213 -0.027361 -13.164417 -6.127507 -3.386733 0.009645 4.754609 0.109184 -0.002672 85.023483 -2.924608 -6.979412 2.925852 -0.644414 35.570095 -1.303093 5.251159 -0.011144 7.066509 12.544464 6.437375 -5.508821 -3.786910 5.960629 -0.301447 0.395740 -7.260632 5.189429 -8.576309 -8.785509 -3.471071 3.714072 -4.149965 -0.747676 -0.387123 4.342040 
-121.828102 52.730267 -123.068604 -0.048855 -1.894531 36.300442 21.220716 -0.105284 -0.135180 -20.839844 0.000000 0.000000 6.727908 0.034067 4.214075 -2.520832 -1.255077 0.218355 -4.754609 -0.109184 -0.002653 -78.360497 -1.046699 46.600937 -6.999948 0.041557 -8.736146 -6.017646 -2.714379 -0.043577 4.754609 0.109184 -0.002672 83.559212 -3.055422 -7.075004 2.993881 -0.712139 41.517456 -2.371896 5.467613 -0.051990 6.590905 12.313964 5.980763 -5.497645 -3.766762 6.221712 -0.363891 0.366655 -7.063903 4.841930 -8.826604 -8.107987 -3.550897 3.667191 -5.100658 -0.726072 -0.391575 4.423816 
-121.726509 52.765797 -123.033081 0.342046 -2.187461 36.060799 21.181664 -0.103163 -0.113305 -20.839844 0.000000 0.000000 6.595222 0.169520 4.447957 -2.520832 -1.255077 0.218355 -4.754609 -0.109184 -0.002653 -77.828415 -1.687463 47.914745 -5.773283 0.034222 -8.864697 -4.125205 -3.181786 0.002349 4.754609 0.109184 -0.002672 82.743774 -2.966913 -5.697661 3.004404 -0.709266 41.927700 -2.127497 5.789672 -0.040373 6.148598 12.230444 5.358428 -5.505269 -3.726773 7.089179 -0.358976 0.355332 -6.566379 4.157001 -8.968443 -5.684520 -3.499366 3.559542 -7.270010 -0.637785 -0.367651 4.201800 
-121.649879 52.781025 -122.985840 0.762450 -2.509544 35.845127 21.142588 -0.084980 -0.106170 -20.839844 0.000000 0.000000 6.243001 0.472073 4.437564 -2.520832 -1.255077 0.218355 -4.754609 -0.109184 -0.002653 -77.484589 -2.381863 48.398720 -4.320593 0.005069 -11.028107 -2.456827 -3.688926 0.030152 4.754609 0.109184 -0.002672 82.467300 -2.264510 -4.999112 2.971281 -0.690977 39.574078 -1.019415 5.563457 0.000097 5.604579 12.225567 4.156459 -5.478847 -3.660242 8.284965 -0.015929 0.299939 -5.745557 3.492671 -8.978024 -4.661117 -3.442936 3.521288 -8.006394 -0.368923 -0.337643 3.603952 
-121.586983 52.803867 -122.926483 1.085193 -2.704594 35.553848 21.123070 -0.091943 -0.087880 -20.839844 0.000000 0.000000 5.637315 0.540350 4.430938 -2.520832 -1.255077 0.218355 -4.754609 -0.109184 -0.002653 -77.031677 -2.959109 47.777775 -3.382099 -0.025758 -12.745800 -2.728834 -3.250102 0.004781 4.754609 0.109184 -0.002672 82.355194 -1.117934 -5.885425 2.946758 -0.666040 37.347431 0.204107 4.683364 0.017108 5.243242 12.156686 3.738449 -5.484174 -3.638798 8.703612 0.485380 0.215166 -4.643026 3.081991 -8.985915 -4.875416 -3.430935 3.558536 -7.284694 -0.122228 -0.291788 2.960913 
-121.531593 52.833317 -122.839111 1.124373 -2.782668 35.403980 21.132837 -0.089775 -0.066124 -20.839844 0.000000 0.000000 5.217176 0.423734 4.414289 -2.520832 -1.255077 0.218355 -4.754609 -0.109184 -0.002653 -76.842842 -3.125633 47.639263 -2.630270 -0.022917 -12.922820 -3.284117 -2.645366 -0.026514 4.754609 0.109184 -0.002672 82.496353 -0.587765 -7.049036 2.935620 -0.667508 36.898125 0.770969 4.136141 0.016928 5.278748 12.150127 4.086639 -5.475270 -3.658545 8.381850 0.809950 0.172865 -4.019007 3.152240 -8.843266 -6.521962 -3.396132 3.649234 -5.450132 -0.066015 -0.260221 2.460623 
-121.469673 52.805904 -122.734558 0.870117 -2.714531 35.671265 21.191418 -0.073682 -0.080948 -20.839844 0.000000 0.000000 5.408741 0.257822 4.200412 -2.520832 -1.255077 0.218355 -4.754609 -0.109184 -0.002653 -76.926041 -2.953408 48.340206 -2.633786 -0.037673 -13.879731 -3.176707 -2.655126 -0.026166 4.754609 0.109184 -0.002672 82.905075 -0.838317 -7.980991 2.949605 -0.669746 37.728378 0.653048 3.726250 0.002196 5.641586 12.241577 4.447655 -5.495515 -3.688161 7.808842 0.811239 0.177750 -3.860974 3.648820 -8.637166 -8.116587 -3.299472 3.717865 -4.323236 -0.222112 -0.266151 2.093459 
